<svg width="184" height="186" viewBox="0 0 184 186" fill="none" xmlns="http://www.w3.org/2000/svg">
<path d="M14.0325 93.4261L12.7186 93.416L12.7595 88.0882L14.0735 88.0983L14.0325 93.4261Z" fill="#777777"/>
<path d="M20.897 72.4593C20.6516 73.3998 20.2666 74.186 19.742 74.8181C19.2174 75.4501 18.5886 75.8875 17.8555 76.1302C17.1225 76.373 16.3147 76.3793 15.4323 76.149L14.9446 76.0217L15.5355 73.7575L16.0231 73.8848C16.7546 74.0757 17.3653 73.9932 17.855 73.6373C18.3331 73.2784 18.6737 72.71 18.8767 71.932C19.0827 71.1425 19.079 70.5152 18.8655 70.0502C18.655 69.5736 18.3059 69.2717 17.8182 69.1445C17.4815 69.0566 17.1829 69.0841 16.9224 69.2269C16.6649 69.3582 16.4238 69.5929 16.1991 69.9311C15.9659 70.2547 15.723 70.6626 15.4706 71.1548L15.2789 71.5327C14.875 72.3202 14.4549 72.9795 14.0187 73.5106C13.5739 74.027 13.0768 74.3871 12.5275 74.5911C11.9813 74.7834 11.3366 74.7825 10.5935 74.5886C9.85037 74.3947 9.26301 74.0554 8.83141 73.5707C8.39123 73.0714 8.11513 72.4661 8.00311 71.7547C7.88251 71.0288 7.93583 70.2304 8.16308 69.3595C8.39033 68.4887 8.74277 67.7559 9.2204 67.1613C9.68945 66.5519 10.2701 66.133 10.9622 65.9043C11.6458 65.6611 12.4288 65.6546 13.3113 65.8848L13.8338 66.0212L13.2429 68.2854L12.7204 68.149C12.256 68.0278 11.8602 68.0237 11.533 68.1368C11.1973 68.2352 10.9216 68.4361 10.706 68.7395C10.4788 69.0399 10.3046 69.4223 10.1834 69.8867C10.0016 70.5834 10.0003 71.1349 10.1795 71.5414C10.3501 71.9331 10.6618 72.1881 11.1147 72.3063C11.4166 72.3851 11.6917 72.3762 11.9401 72.2798C12.1915 72.1718 12.4278 71.9792 12.6489 71.7021C12.8701 71.425 13.0965 71.0562 13.3283 70.5958L13.5199 70.2179C13.9329 69.3956 14.3679 68.703 14.8248 68.1401C15.2848 67.5656 15.7998 67.1605 16.3698 66.9248C16.9398 66.6891 17.5963 66.6682 18.3394 66.8621C19.0825 67.056 19.6886 67.4188 20.1575 67.9504C20.6179 68.4674 20.9197 69.1167 21.0631 69.8982C21.1978 70.6651 21.1424 71.5188 20.897 72.4593Z" fill="#777777"/>
<path d="M25.2386 60.6675C24.602 62.0918 23.7033 63.0439 22.5423 63.524C21.3705 63.9992 20.045 63.9062 18.566 63.2452L15.8052 62.0113C14.3262 61.3502 13.3784 60.4271 12.9617 59.242C12.5341 58.0519 12.6386 56.7448 13.2751 55.3205C13.9068 53.9073 14.7829 52.991 15.9035 52.5718C17.018 52.1367 18.2491 52.2203 19.5966 52.8226L19.6952 52.8666L18.7404 55.003L18.5761 54.9295C17.8968 54.6259 17.2524 54.5679 16.6428 54.7555C16.0381 54.9321 15.5619 55.4094 15.2143 56.1872C14.8715 56.9541 14.8377 57.6619 15.113 58.3107C15.3882 58.9595 15.9312 59.465 16.7419 59.8274L19.5684 61.0907C20.3681 61.4481 21.107 61.5155 21.7849 61.2927C22.4518 61.065 22.9567 60.5677 23.2994 59.8009C23.6471 59.023 23.6851 58.3499 23.4133 57.7816C23.1355 57.1974 22.6625 56.7559 21.9942 56.4572L21.6984 56.325L22.6532 54.1887L22.8833 54.2915C24.2308 54.8938 25.1197 55.7577 25.5499 56.8832C25.974 57.9928 25.8702 59.2543 25.2386 60.6675Z" fill="#777777"/>
<path d="M28.4331 53.9753L17.9308 47.0138L20.9541 42.4528C21.3916 41.7927 21.8879 41.2938 22.4428 40.9562C22.9977 40.6185 23.5747 40.4539 24.1738 40.4623C24.7729 40.4707 25.3575 40.6639 25.9277 41.0418L26.1077 41.1611C26.7378 41.5788 27.1485 42.067 27.3397 42.6256C27.5309 43.1843 27.5706 43.7433 27.4589 44.3027L27.729 44.4817C28.0142 44.0949 28.3598 43.8777 28.7657 43.83C29.1616 43.7757 29.5696 43.8878 29.9897 44.1662L33.4254 46.4436L32.1127 48.4241L28.962 46.3356C28.722 46.1765 28.4838 46.1122 28.2476 46.1428C28.018 46.1634 27.8071 46.3187 27.6148 46.6088L25.7849 49.3694L29.7458 51.9948L28.4331 53.9753ZM23.9845 48.176L25.5558 45.8055C25.8675 45.3354 25.9844 44.8874 25.9068 44.4616C25.8257 44.0192 25.5751 43.6587 25.155 43.3803L25.005 43.2808C24.5849 43.0023 24.1637 42.9103 23.7412 43.0046C23.3088 43.0923 22.9335 43.3761 22.6152 43.8562L21.0439 46.2268L23.9845 48.176Z" fill="#777777"/>
<path d="M39.0494 40.6647C37.9636 41.818 36.7854 42.4392 35.5147 42.5285C34.2353 42.6095 33.0058 42.0948 31.8263 40.9843L29.6246 38.9114C28.4451 37.8009 27.8616 36.6088 27.8741 35.3351C27.8779 34.0531 28.4227 32.8354 29.5085 31.6821C30.5943 30.5288 31.7769 29.9117 33.0563 29.8307C34.327 29.7414 35.5521 30.2521 36.7316 31.3625L38.9334 33.4354C40.1129 34.5459 40.7007 35.7421 40.6969 37.0241C40.6844 38.2979 40.1352 39.5114 39.0494 40.6647ZM37.503 39.2087C38.1117 38.5622 38.3968 37.8829 38.3584 37.171C38.3199 36.4591 37.9862 35.807 37.3571 35.2147L35.0505 33.0431C34.4214 32.4509 33.7504 32.157 33.0375 32.1615C32.3245 32.166 31.6637 32.4916 31.055 33.1381C30.4545 33.7759 30.1694 34.4552 30.1996 35.1758C30.238 35.8877 30.5718 36.5398 31.2009 37.1321L33.5074 39.3037C34.1365 39.8959 34.8075 40.1898 35.5205 40.1853C36.2417 40.1721 36.9025 39.8465 37.503 39.2087Z" fill="#777777"/>
<path d="M44.7944 34.9544L37.1156 24.9646L38.9994 23.5166L45.3618 31.7938L49.9286 28.2835L51.245 29.996L44.7944 34.9544Z" fill="#777777"/>
<path d="M53.5696 28.7075L47.4218 17.7091L49.4958 16.5498L54.5897 25.6628L59.6175 22.8523L60.6714 24.7378L53.5696 28.7075Z" fill="#777777"/>
<path d="M79.7009 19.0284L77.9857 8.73024L74.3636 9.33355L74.0087 7.2029L83.5966 5.6059L83.9515 7.73655L80.3294 8.33986L82.0447 18.638L79.7009 19.0284Z" fill="#777777"/>
<path d="M93.0606 18.252C91.4766 18.252 90.2166 17.82 89.2806 16.956C88.3446 16.08 87.8766 14.832 87.8766 13.212L87.8766 10.188C87.8766 8.568 88.3446 7.326 89.2806 6.462C90.2166 5.586 91.4766 5.148 93.0606 5.148C94.6446 5.148 95.9046 5.586 96.8406 6.462C97.7766 7.326 98.2446 8.568 98.2446 10.188L98.2446 13.212C98.2446 14.832 97.7766 16.08 96.8406 16.956C95.9046 17.82 94.6446 18.252 93.0606 18.252ZM93.0606 16.128C93.9486 16.128 94.6386 15.87 95.1306 15.354C95.6226 14.838 95.8686 14.148 95.8686 13.284L95.8686 10.116C95.8686 9.252 95.6226 8.562 95.1306 8.046C94.6386 7.53 93.9486 7.272 93.0606 7.272C92.1846 7.272 91.4946 7.53 90.9906 8.046C90.4986 8.562 90.2526 9.252 90.2526 10.116L90.2526 13.284C90.2526 14.148 90.4986 14.838 90.9906 15.354C91.4946 15.87 92.1846 16.128 93.0606 16.128Z" fill="#777777"/>
<path d="M115.14 21.6457L119.569 9.84991L127.152 12.6974L126.393 14.7196L121.034 12.7073L119.978 15.5214L124.864 17.3565L124.105 19.3786L119.218 17.5436L118.123 20.4588L123.583 22.509L122.824 24.5312L115.14 21.6457Z" fill="#777777"/>
<path d="M125.038 25.6526L131.395 21.9683L131.324 14.7323L133.667 16.0725L133.579 21.2678L133.86 21.4286L138.293 18.7172L140.637 20.0574L134.364 23.6659L134.414 31.0134L132.07 29.6732L132.18 24.3663L131.899 24.2055L127.382 26.9928L125.038 25.6526Z" fill="#777777"/>
<path d="M136.107 32.513L144.026 22.7125L148.058 25.9706C148.675 26.4683 149.114 27.0318 149.377 27.6609C149.657 28.2882 149.747 28.9315 149.646 29.5907C149.555 30.2574 149.26 30.8988 148.762 31.5148L148.604 31.7108C148.114 32.3175 147.544 32.7364 146.894 32.9675C146.262 33.1968 145.605 33.2452 144.926 33.1125C144.263 32.9781 143.633 32.6696 143.036 32.1869L140.851 30.4221L137.955 34.0063L136.107 32.513ZM142.209 28.742L144.211 30.3597C144.65 30.7142 145.103 30.8795 145.569 30.8555C146.036 30.8315 146.439 30.6095 146.779 30.1895L146.892 30.0495C147.231 29.6295 147.363 29.1888 147.289 28.7274C147.214 28.266 146.958 27.8581 146.519 27.5036L144.517 25.8859L142.209 28.742Z" fill="#777777"/>
<path d="M144.783 40.0828L154.082 31.5803L155.685 33.3337L147.981 40.3787L151.868 44.6296L150.274 46.0871L144.783 40.0828Z" fill="#777777"/>
<path d="M154.227 52.4326C153.358 51.108 153.028 49.8175 153.238 48.561C153.457 47.2979 154.244 46.2221 155.598 45.3336L158.127 43.6751C159.482 42.7866 160.777 42.4968 162.013 42.8056C163.258 43.1078 164.316 43.9212 165.184 45.2457C166.053 46.5702 166.378 47.864 166.159 49.1272C165.95 50.3837 165.168 51.4562 163.813 52.3447L161.285 54.0032C159.93 54.8917 158.63 55.1848 157.384 54.8826C156.148 54.5737 155.096 53.7571 154.227 52.4326ZM156.003 51.2677C156.49 52.0102 157.084 52.4457 157.786 52.5741C158.487 52.7025 159.199 52.5297 159.921 52.0559L162.57 50.3184C163.293 49.8446 163.735 49.2604 163.896 48.566C164.058 47.8716 163.895 47.1532 163.408 46.4106C162.928 45.6781 162.334 45.2426 161.626 45.1042C160.925 44.9758 160.213 45.1485 159.49 45.6224L156.841 47.3599C156.119 47.8337 155.677 48.4179 155.515 49.1123C155.36 49.8167 155.523 50.5352 156.003 51.2677Z" fill="#777777"/>
<path d="M158.447 59.2888L170 54.2594L172.184 59.2765C172.5 60.0027 172.649 60.6904 172.63 61.3397C172.612 61.989 172.437 62.5628 172.104 63.0611C171.771 63.5593 171.291 63.9449 170.664 64.218L170.466 64.3042C169.773 64.6059 169.14 64.6852 168.567 64.5419C167.994 64.3987 167.503 64.1281 167.095 63.7302L166.797 63.8595C166.967 64.3092 166.961 64.7173 166.781 65.0839C166.611 65.4457 166.295 65.7272 165.833 65.9284L162.054 67.5737L161.105 65.3952L164.571 63.8864C164.835 63.7714 165.019 63.6065 165.121 63.3916C165.229 63.1878 165.213 62.9263 165.074 62.6072L163.752 59.5705L159.395 61.4673L158.447 59.2888ZM165.733 58.7083L166.868 61.3159C167.093 61.833 167.406 62.1748 167.805 62.3411C168.221 62.5136 168.659 62.4993 169.121 62.2981L169.286 62.2263C169.749 62.0251 170.055 61.7216 170.205 61.3158C170.367 60.9052 170.333 60.4358 170.103 59.9077L168.968 57.3001L165.733 58.7083Z" fill="#777777"/>
<path d="M162.907 70.6797L175.114 67.5574L177.121 75.4048L175.028 75.94L173.61 70.3946L170.697 71.1395L171.991 76.1966L169.898 76.7319L168.605 71.6747L165.588 72.4463L167.033 78.0965L164.94 78.6317L162.907 70.6797Z" fill="#777777"/>
<path d="M169.931 89.3198L171.245 89.3097L171.286 94.6376L169.972 94.6477L169.931 89.3198Z" fill="#777777"/>
<path d="M169.967 91.8024L171.281 91.8125L171.24 97.1404L169.927 97.1303L169.967 91.8024Z" fill="#777777"/>
<path d="M163.103 112.769C163.348 111.829 163.733 111.042 164.258 110.41C164.783 109.778 165.411 109.341 166.144 109.098C166.878 108.855 167.685 108.849 168.568 109.08L169.055 109.207L168.465 111.471L167.977 111.344C167.245 111.153 166.635 111.235 166.145 111.591C165.667 111.95 165.326 112.519 165.123 113.296C164.917 114.086 164.921 114.713 165.135 115.178C165.345 115.655 165.694 115.957 166.182 116.084C166.518 116.172 166.817 116.144 167.078 116.002C167.335 115.87 167.576 115.636 167.801 115.297C168.034 114.974 168.277 114.566 168.529 114.074L168.721 113.696C169.125 112.908 169.545 112.249 169.981 111.718C170.426 111.202 170.923 110.841 171.472 110.637C172.019 110.445 172.663 110.446 173.407 110.64C174.15 110.834 174.737 111.173 175.169 111.658C175.609 112.157 175.885 112.762 175.997 113.474C176.117 114.2 176.064 114.998 175.837 115.869C175.61 116.74 175.257 117.473 174.78 118.067C174.311 118.677 173.73 119.096 173.038 119.324C172.354 119.567 171.571 119.574 170.689 119.344L170.166 119.207L170.757 116.943L171.28 117.08C171.744 117.201 172.14 117.205 172.467 117.092C172.803 116.993 173.078 116.792 173.294 116.489C173.521 116.189 173.695 115.806 173.817 115.342C173.998 114.645 174 114.094 173.82 113.687C173.65 113.295 173.338 113.04 172.885 112.922C172.583 112.843 172.308 112.852 172.06 112.949C171.808 113.057 171.572 113.249 171.351 113.526C171.13 113.804 170.903 114.172 170.672 114.633L170.48 115.011C170.067 115.833 169.632 116.526 169.175 117.088C168.715 117.663 168.2 118.068 167.63 118.304C167.06 118.539 166.404 118.56 165.661 118.366C164.917 118.172 164.311 117.81 163.842 117.278C163.382 116.761 163.08 116.112 162.937 115.33C162.802 114.563 162.858 113.71 163.103 112.769Z" fill="#777777"/>
<path d="M158.761 124.561C159.398 123.137 160.297 122.185 161.458 121.705C162.63 121.229 163.955 121.322 165.434 121.983L168.195 123.217C169.674 123.878 170.622 124.801 171.038 125.987C171.466 127.177 171.361 128.484 170.725 129.908C170.093 131.321 169.217 132.237 168.096 132.657C166.982 133.092 165.751 133.008 164.403 132.406L164.305 132.362L165.26 130.226L165.424 130.299C166.103 130.603 166.748 130.661 167.357 130.473C167.962 130.296 168.438 129.819 168.786 129.041C169.129 128.274 169.162 127.567 168.887 126.918C168.612 126.269 168.069 125.763 167.258 125.401L164.432 124.138C163.632 123.78 162.893 123.713 162.215 123.936C161.548 124.163 161.043 124.661 160.701 125.428C160.353 126.206 160.315 126.879 160.587 127.447C160.864 128.031 161.338 128.473 162.006 128.771L162.302 128.903L161.347 131.04L161.117 130.937C159.769 130.335 158.88 129.471 158.45 128.345C158.026 127.236 158.13 125.974 158.761 124.561Z" fill="#777777"/>
<path d="M155.563 131.253L166.065 138.215L163.042 142.776C162.604 143.436 162.108 143.935 161.553 144.272C160.998 144.61 160.421 144.775 159.822 144.766C159.223 144.758 158.639 144.565 158.068 144.187L157.888 144.067C157.258 143.65 156.848 143.162 156.656 142.603C156.465 142.044 156.425 141.485 156.537 140.926L156.267 140.747C155.982 141.134 155.636 141.351 155.23 141.399C154.834 141.453 154.426 141.341 154.006 141.062L150.571 138.785L151.883 136.804L155.034 138.893C155.274 139.052 155.512 139.116 155.748 139.086C155.978 139.065 156.189 138.91 156.381 138.62L158.211 135.859L154.25 133.234L155.563 131.253ZM160.012 137.053L158.44 139.423C158.129 139.893 158.012 140.341 158.089 140.767C158.17 141.209 158.421 141.57 158.841 141.848L158.991 141.948C159.411 142.226 159.832 142.318 160.255 142.224C160.687 142.136 161.063 141.852 161.381 141.372L162.952 139.002L160.012 137.053Z" fill="#777777"/>
<path d="M144.951 144.564C146.036 143.411 147.215 142.789 148.485 142.7C149.765 142.619 150.994 143.134 152.174 144.244L154.375 146.317C155.555 147.428 156.138 148.62 156.126 149.893C156.122 151.175 155.577 152.393 154.491 153.546C153.406 154.7 152.223 155.317 150.944 155.398C149.673 155.487 148.448 154.976 147.268 153.866L145.067 151.793C143.887 150.683 143.299 149.486 143.303 148.204C143.316 146.931 143.865 145.717 144.951 144.564ZM146.497 146.02C145.888 146.666 145.603 147.346 145.642 148.058C145.68 148.769 146.014 149.422 146.643 150.014L148.949 152.185C149.579 152.778 150.25 153.072 150.963 153.067C151.675 153.062 152.336 152.737 152.945 152.09C153.545 151.453 153.831 150.773 153.8 150.053C153.762 149.341 153.428 148.689 152.799 148.096L150.493 145.925C149.863 145.333 149.192 145.039 148.48 145.043C147.758 145.056 147.098 145.382 146.497 146.02Z" fill="#777777"/>
<path d="M139.202 150.274L146.88 160.264L144.997 161.712L138.634 153.435L134.067 156.945L132.751 155.232L139.202 150.274Z" fill="#777777"/>
<path d="M130.43 156.521L136.578 167.519L134.504 168.679L129.41 159.566L124.383 162.376L123.329 160.491L130.43 156.521Z" fill="#777777"/>
<path d="M104.299 166.2L106.014 176.498L109.636 175.895L109.991 178.026L100.403 179.623L100.049 177.492L103.671 176.889L101.955 166.591L104.299 166.2Z" fill="#777777"/>
<path d="M90.9355 166.977C92.5195 166.977 93.7795 167.409 94.7155 168.273C95.6515 169.149 96.1195 170.397 96.1195 172.017L96.1195 175.041C96.1195 176.661 95.6515 177.903 94.7155 178.767C93.7795 179.643 92.5195 180.081 90.9355 180.081C89.3515 180.081 88.0915 179.643 87.1555 178.767C86.2195 177.903 85.7515 176.661 85.7515 175.041L85.7515 172.017C85.7515 170.397 86.2195 169.149 87.1555 168.273C88.0915 167.409 89.3515 166.977 90.9355 166.977ZM90.9355 169.101C90.0475 169.101 89.3575 169.359 88.8655 169.875C88.3735 170.391 88.1275 171.081 88.1275 171.945L88.1275 175.113C88.1275 175.977 88.3735 176.667 88.8655 177.183C89.3575 177.699 90.0475 177.957 90.9355 177.957C91.8115 177.957 92.5015 177.699 93.0055 177.183C93.4975 176.667 93.7435 175.977 93.7435 175.113L93.7435 171.945C93.7435 171.081 93.4975 170.391 93.0055 169.875C92.5015 169.359 91.8115 169.101 90.9355 169.101Z" fill="#777777"/>
<path d="M68.8602 163.583L64.4307 175.379L56.8477 172.531L57.6071 170.509L62.9657 172.521L64.0225 169.707L59.1357 167.872L59.895 165.85L64.7818 167.685L65.8765 164.77L60.4168 162.719L61.1761 160.697L68.8602 163.583Z" fill="#777777"/>
<path d="M58.9621 159.576L52.6048 163.26L52.6765 170.496L50.3326 169.156L50.4211 163.961L50.1398 163.8L45.7073 166.511L43.3634 165.171L49.6358 161.563L49.5865 154.215L51.9304 155.555L51.8195 160.862L52.1008 161.023L56.6182 158.236L58.9621 159.576Z" fill="#777777"/>
<path d="M47.8927 152.716L39.9737 162.516L35.9415 159.258C35.3255 158.76 34.8859 158.197 34.6229 157.568C34.3429 156.94 34.2533 156.297 34.354 155.638C34.4453 154.971 34.7398 154.33 35.2376 153.714L35.396 153.518C35.8862 152.911 36.4561 152.492 37.1057 152.261C37.7384 152.032 38.3945 151.983 39.0742 152.116C39.737 152.25 40.367 152.559 40.9644 153.042L43.1485 154.806L46.0446 151.222L47.8927 152.716ZM41.791 156.487L39.7889 154.869C39.3502 154.514 38.8975 154.349 38.4307 154.373C37.9639 154.397 37.5608 154.619 37.2215 155.039L37.1083 155.179C36.7689 155.599 36.6365 156.04 36.7111 156.501C36.7857 156.963 37.0424 157.37 37.4811 157.725L39.4832 159.343L41.791 156.487Z" fill="#777777"/>
<path d="M39.2167 145.146L29.9179 153.648L28.3146 151.895L36.0192 144.85L32.1324 140.599L33.7264 139.141L39.2167 145.146Z" fill="#777777"/>
<path d="M29.773 132.796C30.6417 134.12 30.9715 135.411 30.7624 136.668C30.5432 137.931 29.7564 139.006 28.4017 139.895L25.8731 141.553C24.5185 142.442 23.2233 142.732 21.9875 142.423C20.7416 142.121 19.6843 141.307 18.8156 139.983C17.9469 138.658 17.6221 137.364 17.8412 136.101C18.0503 134.845 18.8322 133.772 20.1868 132.884L22.7154 131.225C24.0701 130.337 25.3703 130.044 26.6161 130.346C27.852 130.655 28.9042 131.471 29.773 132.796ZM27.9969 133.961C27.5099 133.218 26.9157 132.783 26.2144 132.654C25.5131 132.526 24.8012 132.699 24.0788 133.173L21.4297 134.91C20.7073 135.384 20.2652 135.968 20.1036 136.662C19.9419 137.357 20.1046 138.075 20.5917 138.818C21.0721 139.55 21.6663 139.986 22.3741 140.124C23.0754 140.253 23.7873 140.08 24.5098 139.606L27.1588 137.869C27.8813 137.395 28.3234 136.811 28.485 136.116C28.64 135.412 28.4774 134.693 27.9969 133.961Z" fill="#777777"/>
<path d="M25.5531 125.94L14.0004 130.969L11.8162 125.952C11.5 125.226 11.3511 124.538 11.3695 123.889C11.3879 123.239 11.5634 122.666 11.8962 122.167C12.229 121.669 12.7089 121.284 13.3361 121.011L13.5341 120.924C14.2273 120.623 14.8603 120.543 15.4331 120.687C16.0059 120.83 16.4967 121.1 16.9055 121.498L17.2025 121.369C17.033 120.919 17.0385 120.511 17.2192 120.145C17.3889 119.783 17.7048 119.501 18.1669 119.3L21.9463 117.655L22.8947 119.833L19.4289 121.342C19.1648 121.457 18.9814 121.622 18.8786 121.837C18.7711 122.041 18.7867 122.302 18.9256 122.621L20.2477 125.658L24.6047 123.761L25.5531 125.94ZM18.2672 126.52L17.132 123.913C16.9069 123.395 16.5945 123.054 16.1949 122.887C15.7795 122.715 15.3407 122.729 14.8786 122.93L14.7136 123.002C14.2515 123.203 13.9452 123.507 13.7946 123.913C13.6331 124.323 13.6673 124.793 13.8972 125.321L15.0324 127.928L18.2672 126.52Z" fill="#777777"/>
<path d="M21.0934 114.549L8.88641 117.671L6.87924 109.824L8.97187 109.288L10.3903 114.834L13.3025 114.089L12.009 109.032L14.1016 108.497L15.3952 113.554L18.412 112.782L16.9669 107.132L19.0595 106.597L21.0934 114.549Z" fill="#777777"/>
<path d="M14.0692 95.9087L12.7553 95.9188L12.7143 90.591L14.0283 90.5809L14.0692 95.9087Z" fill="#777777"/>
<path d="M89.0266 67.9559H94.7633V102.707H100.5V108.499H94.7633V114.291H89.0266V108.499H83.2899V102.707H89.0266V67.9559ZM77.5531 96.9153V102.707H83.2899V96.9153H77.5531ZM77.5531 96.9153V91.1234H71.8164V96.9153H77.5531ZM106.237 96.9153V102.707H100.5V96.9153H106.237ZM106.237 96.9153V91.1234H111.974V96.9153H106.237Z" fill="#777777"/>
</svg>
